<?xml version="1.0" encoding="utf-8"?>
<!-- Generator: Adobe Illustrator 24.0.0, SVG Export Plug-In . SVG Version: 6.00 Build 0)  -->
<svg version="1.1" id="avatar2" xmlns="http://www.w3.org/2000/svg" xmlns:xlink="http://www.w3.org/1999/xlink" x="0px" y="0px"
	 viewBox="0 0 512 512" style="enable-background:new 0 0 512 512;" xml:space="preserve">
<style type="text/css">
	.st0{fill:#FFE9CA;}
	.st1{fill:#8E826C;}
	.st2{fill:#BFAF94;}
	.st3{fill:#FFFFFF;}
</style>
<g>
	<g>
		<path class="st0" d="M357.8,106.1c-29.8-20.8-66.1-33-105.2-33c-101.8,0-184.3,82.5-184.3,184.3s82.5,184.3,184.3,184.3
			s184.3-82.5,184.3-184.3c0-54.1-23.3-102.8-60.5-136.5"/>
		<path class="st1" d="M252.6,448.6c-105.4,0-191.1-85.7-191.1-191.1S147.2,66.3,252.6,66.3c39.3,0,77,11.8,109.1,34.2
			c3.1,2.2,3.9,6.4,1.7,9.5c-2.2,3.1-6.4,3.9-9.5,1.7C324.1,90.9,289.1,80,252.6,80c-97.9,0-177.5,79.6-177.5,177.5
			S154.7,435,252.6,435s177.5-79.6,177.5-177.5c0-50-21.2-97.9-58.3-131.5c-2.8-2.5-3-6.9-0.5-9.6c2.5-2.8,6.9-3,9.6-0.5
			c39.9,36.2,62.7,87.8,62.7,141.6C443.7,362.8,358,448.6,252.6,448.6z"/>
	</g>
	<g>
		<path class="st2" d="M341.3,202.8c0-45.2-39.7-81.9-88.7-81.9s-88.7,36.7-88.7,81.9v198h177.5v-198H341.3z"/>
		<path class="st1" d="M341.3,407.6H163.8c-3.8,0-6.8-3.1-6.8-6.8v-198c0-48.9,42.9-88.7,95.6-88.7s95.6,39.8,95.6,88.7v198
			C348.2,404.5,345.1,407.6,341.3,407.6z M170.7,393.9h163.8V202.8c0-41.4-36.7-75.1-81.9-75.1s-81.9,33.7-81.9,75.1L170.7,393.9
			L170.7,393.9z"/>
	</g>
	<g>
		<path class="st2" d="M252.6,441.7c32.7,0,63.4-8.6,90.1-23.5L341,409c-3.7-20.6-21.7-35.6-42.6-35.6h-91.5
			c-20.9,0-38.9,15-42.6,35.6l-1.7,9.2C189.2,433.2,219.9,441.7,252.6,441.7z"/>
		<path class="st1" d="M252.6,448.6c-32.7,0-65-8.4-93.4-24.4c-2.5-1.4-3.9-4.3-3.4-7.2l1.7-9.2c4.3-23.9,25.1-41.2,49.3-41.2h91.5
			c24.3,0,45,17.3,49.3,41.2l1.7,9.2c0.5,2.9-0.8,5.7-3.4,7.2C317.6,440.1,285.3,448.6,252.6,448.6z M170.1,414.6
			c25.3,13.3,53.7,20.3,82.5,20.3s57.1-7,82.5-20.3l-0.8-4.3c-3.2-17.4-18.3-30-35.9-30h-91.5c-17.6,0-32.7,12.6-35.9,30
			L170.1,414.6z"/>
	</g>
	<g>
		<path class="st3" d="M273.1,366.6c-8.2,0-15.5,2.8-20.5,7.1c-5-4.3-12.3-7.1-20.5-7.1c-15.1,0-27.3,9.2-27.3,20.5
			s12.2,20.5,27.3,20.5c8.2,0,15.5-2.8,20.5-7.1c5,4.3,12.3,7.1,20.5,7.1c15.1,0,27.3-9.2,27.3-20.5
			C300.4,375.8,288.1,366.6,273.1,366.6z"/>
		<path class="st1" d="M273.1,414.4c-7.5,0-14.6-1.9-20.5-5.5c-5.9,3.6-13,5.5-20.5,5.5c-18.8,0-34.1-12.3-34.1-27.3
			c0-15.1,15.3-27.3,34.1-27.3c7.5,0,14.6,1.9,20.5,5.5c5.9-3.6,13-5.5,20.5-5.5c18.8,0,34.1,12.3,34.1,27.3
			C307.2,402.2,291.9,414.4,273.1,414.4z M252.6,393.7c1.6,0,3.2,0.5,4.4,1.6c4,3.4,9.9,5.4,16,5.4c11.1,0,20.5-6.3,20.5-13.7
			c0-7.4-9.4-13.7-20.5-13.7c-6.2,0-12,2-16,5.4c-2.6,2.2-6.3,2.2-8.9,0c-4-3.4-9.9-5.4-16-5.4c-11.1,0-20.5,6.3-20.5,13.7
			c0,7.4,9.4,13.7,20.5,13.7c6.2,0,12-2,16-5.4C249.4,394.3,251,393.7,252.6,393.7z"/>
	</g>
	<g>
		<path class="st3" d="M259,387.1h-12.9c-11.5,0-20.9-9.3-20.9-20.9v-26.9h54.6v26.9C279.9,377.8,270.5,387.1,259,387.1z"/>
		<path class="st1" d="M259,393.9h-12.9c-15.3,0-27.7-12.4-27.7-27.7v-26.9c0-3.8,3.1-6.8,6.8-6.8h54.6c3.8,0,6.8,3.1,6.8,6.8v26.9
			C286.7,381.5,274.3,393.9,259,393.9z M232.1,346.2v20.1c0,7.7,6.3,14,14,14H259c7.7,0,14-6.3,14-14v-20.1H232.1z"/>
	</g>
	<g>
		<path class="st3" d="M320.9,237v-6.9c0-37.7-30.6-61.4-68.3-61.4s-68.3,23.7-68.3,61.4v6.9c-7.6,0.2-13.7,6.4-13.7,14v2.7
			c0,11.1,7.4,20.3,17.5,23.2l4.3,28.8c4,27.1,44.9,47.4,60.1,47.4s56.1-20.3,60.1-47.4l4.3-28.8c10.1-2.9,17.5-12.2,17.5-23.2V251
			C334.5,243.3,328.4,237.2,320.9,237z"/>
		<path class="st1" d="M252.6,359.8c-17,0-62.1-21.2-66.9-53.2l-3.7-24.8c-10.9-5-18.2-16-18.2-28.2v-2.7c0-9,5.6-16.7,13.7-19.5
			v-1.3c0-39.6,31.6-68.3,75.1-68.3s75.1,28.7,75.1,68.3v1.3c8,2.9,13.7,10.5,13.7,19.5v2.7c0,12.2-7.3,23.2-18.2,28.2l-3.7,24.8
			C314.7,338.6,269.6,359.8,252.6,359.8z M252.6,175.5c-36.2,0-61.4,22.5-61.4,54.6v6.9c0,3.7-3,6.7-6.7,6.8c-3.9,0.1-7,3.2-7,7.1
			v2.7c0,7.8,5.1,14.5,12.6,16.7c2.6,0.7,4.5,2.9,4.8,5.6l4.3,28.8c3.4,22.7,40.4,41.5,53.4,41.5s50-18.9,53.4-41.5l4.3-28.8
			c0.4-2.6,2.3-4.8,4.8-5.6c7.6-2.2,12.6-8.9,12.6-16.7v-2.7c0-3.9-3.1-7-7-7.1c-3.7-0.1-6.7-3.1-6.7-6.8v-6.9
			C314,197.9,288.8,175.5,252.6,175.5z"/>
	</g>
	<g>
		<circle class="st1" cx="286.7" cy="250.6" r="6.8"/>
		<circle class="st1" cx="218.5" cy="250.6" r="6.8"/>
		<path class="st1" d="M252.6,305.2c-7.2,0-14-3.9-17.7-10.2c-1.2-2.1-1.2-4.7,0-6.8c1.2-2.1,3.5-3.4,5.9-3.4h23.5
			c2.4,0,4.7,1.3,5.9,3.4c1.2,2.1,1.2,4.7,0,6.8C266.6,301.3,259.8,305.2,252.6,305.2L252.6,305.2z"/>
	</g>
	<path class="st2" d="M184.3,209.6c0,0,47.8,6.8,68.3-47.8h-41l-34.1,27.3L184.3,209.6z"/>
	<path class="st1" d="M218.5,236.9h-13.7c-3.8,0-6.8-3.1-6.8-6.8c0-3.8,3.1-6.8,6.8-6.8h13.7c3.8,0,6.8,3.1,6.8,6.8
		C225.3,233.9,222.2,236.9,218.5,236.9z"/>
	<path class="st1" d="M300.4,236.9h-13.7c-3.8,0-6.8-3.1-6.8-6.8c0-3.8,3.1-6.8,6.8-6.8h13.7c3.8,0,6.8,3.1,6.8,6.8
		C307.2,233.9,304.1,236.9,300.4,236.9z"/>
	<path class="st1" d="M188.8,216.7c-3.4,0-5.4-0.3-5.5-0.3c-3.7-0.5-6.3-4-5.8-7.7s4-6.3,7.7-5.8c1.8,0.2,42.7,5.1,60.9-43.4
		c1.3-3.5,5.3-5.3,8.8-4c3.5,1.3,5.3,5.3,4,8.8C241.1,212,203.1,216.7,188.8,216.7L188.8,216.7z"/>
	<path class="st2" d="M320.9,209.6c0,0-47.8,6.8-68.3-47.8h41l34.1,27.3L320.9,209.6z"/>
	<path class="st1" d="M316.3,216.7c-14.2,0-52.2-4.7-70.1-52.4c-1.3-3.5,0.5-7.5,4-8.8s7.5,0.5,8.8,4c18.2,48.6,59.2,43.7,60.9,43.4
		c3.7-0.5,7.2,2.1,7.7,5.8s-2.1,7.2-5.8,7.7C321.7,216.4,319.7,216.7,316.3,216.7z"/>
</g>
</svg>
