<?xml version="1.0" encoding="UTF-8" standalone="no"?>
<!-- Created with Inkscape (http://www.inkscape.org/) -->

<svg
   version="1.1"
   id="svg3717"
   xml:space="preserve"
   width="682.66669"
   height="682.66669"
   viewBox="0 0 682.66669 682.66669"
   xmlns="http://www.w3.org/2000/svg"
   xmlns:svg="http://www.w3.org/2000/svg"><defs
     id="defs3721"><clipPath
       clipPathUnits="userSpaceOnUse"
       id="clipPath3731"><path
         d="M 0,512 H 512 V 0 H 0 Z"
         id="path3729" /></clipPath></defs><g
     id="g3723"
     transform="matrix(1.3333333,0,0,-1.3333333,0,682.66667)"><g
       id="g3725"><g
         id="g3727"
         clip-path="url(#clipPath3731)"><g
           id="g3733"
           transform="translate(417.2285,299.582)"><path
             d="m 0,0 -42.793,133.079 c -0.844,2.587 -3.431,4.217 -6.073,3.514 l -93.01,-24.94 c -2.614,-0.703 -4.048,-3.374 -3.486,-6.045 l 17.545,-81.287 C -98.886,5.905 -60.984,1.237 -29.438,-0.787 -18.613,-1.462 -8.575,-1.209 0,0"
             style="fill:#eff6ff;fill-opacity:1;fill-rule:evenodd;stroke:none"
             id="path3735" /></g><g
           id="g3737"
           transform="translate(410.1709,155.9595)"><path
             d="M 0,0 C 24.996,14.059 39.166,43.779 30.113,71.924 L 4.752,150.792 c -8.575,-1.209 -18.613,-1.461 -29.438,-0.787 -31.546,2.025 -69.87,12.119 -98.801,30.563 L -92.952,38.942 c 6.241,-28.876 33.374,-47.546 62.024,-47.236 5.342,0.056 10.712,0.787 15.998,2.193 C -9.615,-4.667 -4.611,-2.615 0,0"
             style="fill:#fca7ad;fill-opacity:1;fill-rule:evenodd;stroke:none"
             id="path3739" /></g><g
           id="g3741"
           transform="translate(440.2842,227.8833)"><path
             d="m 0,0 -25.361,78.869 c -8.576,-1.209 -18.614,-1.462 -29.438,-0.787 l 1.321,-4.106 25.389,-78.868 c 5.539,-17.264 2.362,-35.09 -6.691,-49.571 -5.708,-9.138 -13.778,-16.926 -23.421,-22.381 -1.069,-0.591 -2.165,-1.153 -3.262,-1.715 -1.152,-0.563 -2.334,-1.069 -3.515,-1.575 1.322,-0.056 2.644,-0.084 3.937,-0.084 5.342,0.056 10.712,0.787 15.998,2.193 5.314,1.434 10.318,3.486 14.93,6.101 C -5.117,-57.865 9.053,-28.145 0,0"
             style="fill:#fe8d94;fill-opacity:1;fill-rule:evenodd;stroke:none"
             id="path3743" /></g><g
           id="g3745"
           transform="translate(379.2432,147.665)"><path
             d="m 0,0 21.453,-80.049 c 2.39,-8.913 0.449,-15.268 -5.117,-22.607 l -18.923,-24.855 c -6.382,-8.379 -6.073,-14.705 3.853,-12.034 l 49.174,13.187 49.176,13.187 c 9.953,2.643 7.058,8.266 -2.671,12.343 l -28.819,12.062 c -8.463,3.543 -13.355,8.07 -15.745,17.011 L 30.928,8.294 C 26.316,5.68 21.312,3.627 15.998,2.193 10.712,0.788 5.342,0.056 0,0"
             style="fill:#eff6ff;fill-opacity:1;fill-rule:evenodd;stroke:none"
             id="path3747" /></g><g
           id="g3749"
           transform="translate(99.71,342.2358)"><path
             d="m 0,0 -28.285,-87.95 c -9.054,-28.117 5.145,-57.865 30.112,-71.924 4.64,-2.615 9.645,-4.668 14.93,-6.102 5.314,-1.405 10.684,-2.108 15.999,-2.165 28.65,-0.309 55.81,18.333 62.024,47.237 l 30.534,141.57 C 86.458,-4.077 33.599,-4.724 0,0"
             style="fill:#fca7ad;fill-opacity:1;fill-rule:evenodd;stroke:none"
             id="path3751" /></g><g
           id="g3753"
           transform="translate(137.3018,459.0908)"><path
             d="m 0,0 -37.592,-116.855 c 33.599,-4.724 86.458,-4.077 125.315,20.666 l 14.817,68.69 c 0.591,2.671 -0.871,5.371 -3.486,6.074 L 6.045,3.486 C 3.401,4.189 0.815,2.587 0,0"
             style="fill:#eff6ff;fill-opacity:1;fill-rule:evenodd;stroke:none"
             id="path3755" /></g><g
           id="g3757"
           transform="translate(101.5371,182.3618)"><path
             d="m 0,0 -21.452,-80.05 -44.565,-29.073 c -8.829,-5.764 -12.596,-9.672 -2.671,-12.343 l 49.175,-13.187 49.176,-13.159 c 9.953,-2.671 8.632,2.615 3.852,12.034 L 9.476,-88.316 30.929,-8.267 C 25.614,-8.21 20.244,-7.507 14.93,-6.102 9.645,-4.667 4.64,-2.615 0,0"
             style="fill:#eff6ff;fill-opacity:1;fill-rule:evenodd;stroke:none"
             id="path3759" /></g><g
           id="g3761"
           transform="translate(132.4658,174.0952)"><path
             d="m 0,0 c -5.314,0.056 -10.685,0.759 -15.999,2.165 l -23.167,-86.432 22.718,-51.23 15.182,-4.048 c 9.954,-2.671 8.632,2.614 3.852,12.034 l -24.039,47.462 z"
             style="fill:#d9eeff;fill-opacity:1;fill-rule:evenodd;stroke:none"
             id="path3763" /></g><g
           id="g3765"
           transform="translate(164.5742,297.9233)"><path
             d="M 0,0 V 0.028"
             style="fill:none;stroke:#000000;stroke-width:15;stroke-linecap:round;stroke-linejoin:round;stroke-miterlimit:10;stroke-dasharray:none;stroke-opacity:1"
             id="path3767" /></g><g
           id="g3769"
           transform="translate(116.8613,276.6948)"><path
             d="M 0,0 V 0.056"
             style="fill:none;stroke:#000000;stroke-width:15;stroke-linecap:round;stroke-linejoin:round;stroke-miterlimit:10;stroke-dasharray:none;stroke-opacity:1"
             id="path3771" /></g><g
           id="g3773"
           transform="translate(148.2109,242.0825)"><path
             d="M 0,0 V 0.056"
             style="fill:none;stroke:#000000;stroke-width:15;stroke-linecap:round;stroke-linejoin:round;stroke-miterlimit:10;stroke-dasharray:none;stroke-opacity:1"
             id="path3775" /></g><g
           id="g3777"
           transform="translate(347.1338,271.4932)"><path
             d="M 0,0 V 0.056"
             style="fill:none;stroke:#000000;stroke-width:15;stroke-linecap:round;stroke-linejoin:round;stroke-miterlimit:10;stroke-dasharray:none;stroke-opacity:1"
             id="path3779" /></g><g
           id="g3781"
           transform="translate(392.7666,225.8311)"><path
             d="M 0,0 V 0.028"
             style="fill:none;stroke:#000000;stroke-width:15;stroke-linecap:round;stroke-linejoin:round;stroke-miterlimit:10;stroke-dasharray:none;stroke-opacity:1"
             id="path3783" /></g><g
           id="g3785"
           transform="translate(363.498,189.3066)"><path
             d="M 0,0 V 0.028"
             style="fill:none;stroke:#000000;stroke-width:15;stroke-linecap:round;stroke-linejoin:round;stroke-miterlimit:10;stroke-dasharray:none;stroke-opacity:1"
             id="path3787" /></g><g
           id="g3789"
           transform="translate(239.8418,431.5923)"><path
             d="m 0,0 c 0.591,2.671 -0.871,5.37 -3.486,6.073 l -30.985,8.295 c 2.644,-0.703 4.077,-3.402 3.515,-6.045 l -20.019,-92.815 c 12.681,3.571 24.996,8.688 36.158,15.802 z"
             style="fill:#d9eeff;fill-opacity:1;fill-rule:evenodd;stroke:none"
             id="path3791" /></g><g
           id="g3793"
           transform="translate(194.4902,221.332)"><path
             d="M 0,0 30.534,141.57 C 19.372,134.457 7.058,129.339 -5.623,125.768 L -29.944,12.962 c -6.888,-31.941 -39.363,-51.37 -71.162,-46.478 2.558,-1.996 5.286,-3.823 8.153,-5.454 4.64,-2.615 9.644,-4.668 14.93,-6.102 5.314,-1.406 10.684,-2.109 15.999,-2.165 C -33.374,-47.546 -6.214,-28.904 0,0"
             style="fill:#fe8d94;fill-opacity:1;fill-rule:evenodd;stroke:none"
             id="path3795" /></g><g
           id="g3797"
           transform="translate(132.4658,174.0952)"><path
             d="m 0,0 -21.453,-80.049 24.039,-47.462 c 4.78,-9.42 6.102,-14.705 -3.852,-12.034 l -49.175,13.158 -49.176,13.187 c -9.925,2.672 -6.157,6.58 2.672,12.344 l 44.564,29.073 21.452,80.05 c 4.64,-2.616 9.645,-4.668 14.93,-6.102 C -10.685,0.759 -5.314,0.056 0,0 Z"
             style="fill:none;stroke:#000000;stroke-width:15;stroke-linecap:round;stroke-linejoin:round;stroke-miterlimit:10;stroke-dasharray:none;stroke-opacity:1"
             id="path3799" /></g><g
           id="g3801"
           transform="translate(225.0244,362.9019)"><path
             d="M 0,0 C -38.856,-24.743 -91.716,-25.39 -125.314,-20.666"
             style="fill:none;stroke:#000000;stroke-width:15;stroke-linecap:round;stroke-linejoin:round;stroke-miterlimit:10;stroke-dasharray:none;stroke-opacity:1"
             id="path3803" /></g><g
           id="g3805"
           transform="translate(395.2412,149.8584)"><path
             d="m 0,0 21.453,-80.05 c 2.39,-8.941 5.933,-17.067 14.312,-20.834 l 38.041,-17.124 9.812,2.643 c 9.953,2.643 7.058,8.266 -2.671,12.344 l -28.819,12.062 c -8.463,3.542 -13.356,8.069 -15.745,17.011 L 14.93,6.101 C 10.318,3.486 5.314,1.434 0,0"
             style="fill:#d9eeff;fill-opacity:1;fill-rule:evenodd;stroke:none"
             id="path3807" /></g><g
           id="g3809"
           transform="translate(379.2432,147.665)"><path
             d="m 0,0 21.453,-80.049 c 2.39,-8.913 0.449,-15.268 -5.117,-22.607 l -18.923,-24.855 c -6.382,-8.379 -6.073,-14.705 3.853,-12.034 l 49.174,13.187 49.176,13.187 c 9.953,2.643 7.058,8.266 -2.671,12.343 l -28.819,12.062 c -8.463,3.543 -13.355,8.07 -15.745,17.011 L 30.928,8.294 C 26.316,5.68 21.312,3.627 15.998,2.193 10.712,0.788 5.342,0.056 0,0 Z"
             style="fill:none;stroke:#000000;stroke-width:15;stroke-linecap:round;stroke-linejoin:round;stroke-miterlimit:10;stroke-dasharray:none;stroke-opacity:1"
             id="path3811" /></g><g
           id="g3813"
           transform="translate(207.0859,279.647)"><path
             d="m 0,0 32.756,151.945 c 0.591,2.671 -0.871,5.37 -3.486,6.074 l -93.009,24.911 c -2.644,0.703 -5.23,-0.899 -6.045,-3.486 l -65.877,-204.805 c -9.054,-28.118 5.145,-57.866 30.112,-71.924 4.64,-2.615 9.645,-4.668 14.93,-6.102 5.314,-1.405 10.684,-2.109 15.999,-2.165 28.65,-0.309 55.81,18.333 62.024,47.237 l 5.117,23.731"
             style="fill:none;stroke:#000000;stroke-width:15;stroke-linecap:round;stroke-linejoin:round;stroke-miterlimit:10;stroke-dasharray:none;stroke-opacity:1"
             id="path3815" /></g><g
           id="g3817"
           transform="translate(414.9229,306.752)"><path
             d="m 0,0 -40.487,125.909 c -0.844,2.587 -3.431,4.217 -6.074,3.514 l -23.336,-6.27 c 0.59,-0.59 1.04,-1.321 1.293,-2.137 L -29.437,-0.787 C -18.613,-1.462 -8.575,-1.209 0,0"
             style="fill:#d9eeff;fill-opacity:1;fill-rule:evenodd;stroke:none"
             id="path3819" /></g><g
           id="g3821"
           transform="translate(309.4023,232.6069)"><path
             d="m 0,0 7.816,-37.705 c 5.989,-28.933 33.374,-47.546 62.025,-47.237 5.342,0.056 10.712,0.788 15.998,2.193 5.314,1.435 10.318,3.487 14.93,6.102 24.996,14.058 39.166,43.778 30.113,71.923 L 105.521,74.145 65.033,200.054 c -0.844,2.587 -3.43,4.217 -6.073,3.514 l -93.01,-24.94 c -2.614,-0.703 -4.048,-3.374 -3.486,-6.045 l 14.817,-68.662 15.268,-70.827"
             style="fill:none;stroke:#000000;stroke-width:15;stroke-linecap:round;stroke-linejoin:round;stroke-miterlimit:10;stroke-dasharray:none;stroke-opacity:1"
             id="path3823" /></g><g
           id="g3825"
           transform="translate(414.9229,306.752)"><path
             d="m 0,0 c -8.575,-1.209 -18.613,-1.462 -29.437,-0.787 -31.547,2.024 -69.871,12.119 -98.802,30.563"
             style="fill:none;stroke:#000000;stroke-width:15;stroke-linecap:round;stroke-linejoin:round;stroke-miterlimit:10;stroke-dasharray:none;stroke-opacity:1"
             id="path3827" /></g><g
           id="g3829"
           transform="translate(268.2676,480.291)"><path
             d="M 0,0 V 24.209"
             style="fill:none;stroke:#000000;stroke-width:15;stroke-linecap:round;stroke-linejoin:round;stroke-miterlimit:10;stroke-dasharray:none;stroke-opacity:1"
             id="path3831" /></g><g
           id="g3833"
           transform="translate(243.0195,468.6226)"><path
             d="M 0,0 -17.095,17.124"
             style="fill:none;stroke:#000000;stroke-width:15;stroke-linecap:round;stroke-linejoin:round;stroke-miterlimit:10;stroke-dasharray:none;stroke-opacity:1"
             id="path3835" /></g><g
           id="g3837"
           transform="translate(293.5439,468.6226)"><path
             d="M 0,0 17.095,17.124"
             style="fill:none;stroke:#000000;stroke-width:15;stroke-linecap:round;stroke-linejoin:round;stroke-miterlimit:10;stroke-dasharray:none;stroke-opacity:1"
             id="path3839" /></g></g></g></g></svg>
