<?xml version="1.0" encoding="utf-8"?>
<!-- Generator: Adobe Illustrator 24.0.0, SVG Export Plug-In . SVG Version: 6.00 Build 0)  -->
<svg version="1.1" id="avatar11" xmlns="http://www.w3.org/2000/svg" xmlns:xlink="http://www.w3.org/1999/xlink" x="0px" y="0px"
	 viewBox="0 0 512 512" style="enable-background:new 0 0 512 512;" xml:space="preserve">
<style type="text/css">
	.st0{fill:#FFE9CA;}
	.st1{fill:#8E826C;}
	.st2{fill:#CEBCA3;}
	.st3{fill:#BFAF94;}
	.st4{fill:#FFFFFF;}
</style>
<g>
	<g>
		<path class="st0" d="M370.2,115.5C338.3,89,297.3,73.1,252.6,73.1c-101.8,0-184.3,82.5-184.3,184.3s82.5,184.3,184.3,184.3
			s184.3-82.5,184.3-184.3c0-47.2-17.8-90.3-46.9-122.9"/>
		<path class="st1" d="M252.6,448.6c-105.4,0-191.1-85.7-191.1-191.1S147.2,66.3,252.6,66.3c44.5,0,87.8,15.6,122,44
			c2.9,2.4,3.3,6.7,0.9,9.6c-2.4,2.9-6.7,3.3-9.6,0.9c-31.7-26.3-71.9-40.8-113.2-40.8c-97.9,0-177.5,79.6-177.5,177.5
			s79.6,177.5,177.5,177.5s177.5-79.6,177.5-177.5c0-43.8-16.1-85.8-45.2-118.3c-2.5-2.8-2.3-7.1,0.5-9.6c2.8-2.5,7.1-2.3,9.6,0.5
			c31.4,35.1,48.7,80.3,48.7,127.4C443.7,362.8,358,448.6,252.6,448.6z"/>
	</g>
	<g>
		<path class="st2" d="M252.6,148.2l-13.7-41l20.5-6.8l4.9,41"/>
		<path class="st1" d="M252.6,155c-2.9,0-5.5-1.8-6.5-4.7l-13.7-41c-1.2-3.6,0.7-7.4,4.3-8.6l20.5-6.8c2-0.7,4.1-0.4,5.8,0.7
			c1.7,1.1,2.9,2.9,3.1,4.9l4.9,41c0.5,3.7-2.2,7.1-6,7.6c-2.5,0.3-4.9-0.8-6.3-2.7l0.2,0.6c1.2,3.6-0.7,7.4-4.3,8.6
			C254,154.9,253.3,155,252.6,155L252.6,155z M247.6,111.5l9.9,29.6l-3.8-31.7L247.6,111.5z"/>
	</g>
	<g>
		<path class="st3" d="M341.3,332.5H163.8V214.6c0-44.2,35.8-80.1,80.1-80.1h15.5c44.2,0,81.9,35.8,81.9,80.1V332.5z"/>
		<path class="st1" d="M341.3,339.3H163.8c-3.8,0-6.8-3.1-6.8-6.8V214.6c0-47.9,39-86.9,86.9-86.9h15.5c48.1,0,88.7,39.8,88.7,86.9
			v117.9C348.2,336.3,345.1,339.3,341.3,339.3z M170.7,325.7h163.8V214.6c0-39.7-34.4-73.2-75.1-73.2h-15.5
			c-40.4,0-73.2,32.9-73.2,73.2V325.7z"/>
	</g>
	<g>
		<path class="st4" d="M341,409c-3.7-20.6-21.7-35.6-42.6-35.6h-4.8h-13.7v-41h-54.6v41h-13.7h-4.8c-20.9,0-38.9,15-42.6,35.6
			l-1.7,9.2c26.6,15,57.3,23.5,90.1,23.5s63.4-8.6,90.1-23.5L341,409z"/>
		<path class="st1" d="M252.6,448.6c-32.7,0-65-8.4-93.4-24.4c-2.5-1.4-3.9-4.3-3.4-7.2l1.7-9.2c4.3-23.9,25.1-41.2,49.3-41.2h11.6
			v-34.1c0-3.8,3.1-6.8,6.8-6.8h54.6c3.8,0,6.8,3.1,6.8,6.8v34.1h11.6c24.3,0,45,17.3,49.3,41.2l1.7,9.2c0.5,2.9-0.8,5.7-3.4,7.2
			C317.6,440.1,285.3,448.6,252.6,448.6z M170.1,414.6c25.3,13.3,53.7,20.3,82.5,20.3s57.1-7,82.5-20.3l-0.8-4.3
			c-3.2-17.4-18.3-30-35.9-30h-18.5c-3.8,0-6.8-3.1-6.8-6.8v-34.1h-41v34.1c0,3.8-3.1,6.8-6.8,6.8h-18.5c-17.6,0-32.7,12.6-35.9,30
			L170.1,414.6z"/>
	</g>
	<g>
		<path class="st4" d="M184.3,237c-7.6,0.2-13.7,6.4-13.7,14v2.7c0,11.1,7.4,20.3,17.5,23.2l4.3,28.8c4,27.1,44.9,47.4,60.1,47.4
			c15.2,0,56.1-20.3,60.1-47.4l4.3-28.8c10.1-2.9,17.5-12.2,17.5-23.2v-2.7c0-7.6-6.1-13.8-13.7-14v0c0,0-95.6-6.8-122.9-47.8
			L184.3,237z"/>
		<path class="st1" d="M252.6,359.8c-17,0-62.1-21.2-66.9-53.2l-3.7-24.8c-10.9-5-18.2-16-18.2-28.2v-2.7c0-9.6,6.3-17.6,15.1-20
			l12.5-43.6c0.7-2.6,2.9-4.5,5.5-4.9c2.7-0.4,5.3,0.7,6.7,3c25.2,37.7,116.8,44.7,117.7,44.8c0.2,0,0.3,0,0.5,0.1
			c11,0.7,19.5,9.7,19.5,20.8v2.7c0,12.2-7.3,23.2-18.2,28.2l-3.7,24.8C314.7,338.6,269.6,359.8,252.6,359.8L252.6,359.8z
			 M201,203.3l-10.2,35.6c-0.8,2.9-3.4,4.9-6.4,4.9c-3.9,0.1-7,3.2-7,7.1v2.7c0,7.8,5.1,14.5,12.6,16.7c2.6,0.7,4.5,2.9,4.8,5.6
			l4.3,28.8c3.4,22.7,40.4,41.5,53.4,41.5s50-18.9,53.4-41.5l4.3-28.8c0.4-2.6,2.3-4.8,4.8-5.6c7.6-2.2,12.6-8.9,12.6-16.7v-2.7
			c0-3.9-3.1-7-7-7.1c-0.3,0-0.7,0-1-0.1C310.9,243,235.4,236.1,201,203.3L201,203.3z M184.3,237L184.3,237L184.3,237z"/>
	</g>
	<g>
		<circle class="st1" cx="286.7" cy="250.6" r="6.8"/>
		<circle class="st1" cx="218.5" cy="250.6" r="6.8"/>
		<path class="st1" d="M252.6,305.2c-7.2,0-14-3.9-17.7-10.2c-1.2-2.1-1.2-4.7,0-6.8c1.2-2.1,3.5-3.4,5.9-3.4h23.5
			c2.4,0,4.7,1.3,5.9,3.4c1.2,2.1,1.2,4.7,0,6.8C266.6,301.3,259.8,305.2,252.6,305.2L252.6,305.2z"/>
		<path class="st1" d="M218.5,236.9h-13.7c-3.8,0-6.8-3.1-6.8-6.8c0-3.8,3.1-6.8,6.8-6.8h13.7c3.8,0,6.8,3.1,6.8,6.8
			C225.3,233.9,222.2,236.9,218.5,236.9z"/>
	</g>
	<g>
		<path class="st2" d="M341.3,223.3v184.3h-34.1C293.5,353,314,216.5,314,216.5s-47.8-6.8-54.6-20.5"/>
		<path class="st1" d="M341.3,414.4h-34.1c-3.1,0-5.9-2.1-6.6-5.2c-12.2-48.9,1.8-158.6,5.7-187.1c-16.1-2.8-46.3-9.7-53-23.1
			c-1.7-3.4-0.3-7.5,3.1-9.2c3.4-1.7,7.5-0.3,9.2,3.1c3.1,6.2,28.1,13.7,49.5,16.8c1.8,0.3,3.4,1.2,4.5,2.7c1.1,1.5,1.5,3.3,1.3,5.1
			c-0.2,1.3-18.9,127.5-8.1,183.3h21.8V223.3c0-3.8,3.1-6.8,6.8-6.8s6.8,3.1,6.8,6.8v184.3C348.2,411.4,345.1,414.4,341.3,414.4
			L341.3,414.4z"/>
	</g>
	<path class="st1" d="M252.6,448.6c-3.8,0-6.8-3.1-6.8-6.8V353c0-3.8,3.1-6.8,6.8-6.8s6.8,3.1,6.8,6.8v88.7
		C259.4,445.5,256.4,448.6,252.6,448.6z"/>
</g>
</svg>
