<?xml version="1.0" encoding="utf-8"?>
<!-- Generator: Adobe Illustrator 24.0.0, SVG Export Plug-In . SVG Version: 6.00 Build 0)  -->
<svg version="1.1" id="Capa_1" xmlns="http://www.w3.org/2000/svg" xmlns:xlink="http://www.w3.org/1999/xlink" x="0px" y="0px"
	 viewBox="0 0 512 512" style="enable-background:new 0 0 512 512;" xml:space="preserve">
<style type="text/css">
	.st0{fill:#FFFFFF;}
</style>
<g id="Line">
	<path class="st0" d="M128,53.3h42.7c29.5,0,53.3,23.9,53.3,53.3v298.7c0,29.5-23.9,53.3-53.3,53.3H128c-29.5,0-53.3-23.9-53.3-53.3
		V106.7C74.7,77.2,98.5,53.3,128,53.3z"/>
	<path class="st0" d="M341.3,53.3H384c29.5,0,53.3,23.9,53.3,53.3v298.7c0,29.5-23.9,53.3-53.3,53.3h-42.7
		c-29.5,0-53.3-23.9-53.3-53.3V106.7C288,77.2,311.9,53.3,341.3,53.3z"/>
</g>
</svg>
