<?xml version="1.0" encoding="UTF-8" standalone="no"?>
<!-- Created with Inkscape (http://www.inkscape.org/) -->

<svg
   version="1.1"
   id="svg441"
   xml:space="preserve"
   width="682.66669"
   height="682.66669"
   viewBox="0 0 682.66669 682.66669"
   xmlns="http://www.w3.org/2000/svg"
   xmlns:svg="http://www.w3.org/2000/svg"><defs
     id="defs445"><clipPath
       clipPathUnits="userSpaceOnUse"
       id="clipPath455"><path
         d="M 0,512 H 512 V 0 H 0 Z"
         id="path453" /></clipPath></defs><g
     id="g447"
     transform="matrix(1.3333333,0,0,-1.3333333,0,682.66667)"><g
       id="g449"><g
         id="g451"
         clip-path="url(#clipPath455)"><g
           id="g457"
           transform="translate(82.0498,65.1103)"><path
             d="m 0,0 v 232.334 c 0,100.913 71.72,187.881 170.85,206.763 2.048,0.39 4.152,0.39 6.2,0 v 0 C 276.181,420.215 347.9,333.545 347.9,232.632 V 0 Z"
             style="fill:#ebeaec;fill-opacity:1;fill-rule:nonzero;stroke:none"
             id="path459" /></g><g
           id="g461"
           transform="translate(259.1001,504.2075)"><path
             d="m 0,0 v 0 c -2.048,0.39 -4.152,0.39 -6.2,0 -2.823,-0.538 -5.621,-1.138 -8.398,-1.785 94.753,-22.054 162.448,-106.642 162.448,-204.68 v -232.633 h 23 v 232.633 C 170.85,-105.552 99.13,-18.882 0,0"
             style="fill:#dad9dd;fill-opacity:1;fill-rule:nonzero;stroke:none"
             id="path463" /></g><g
           id="g465"
           transform="translate(380.25,263.9224)"><path
             d="M 0,0 V 33.82 C 0,108.649 -51.877,173.406 -124.249,190.155 -196.618,173.393 -248.5,108.514 -248.5,33.523 V 0.361 l 16.567,-53.841 -16.567,-53.842 v -91.491 H 0 v 91.491 l -11.5,53.842 z"
             style="fill:#8faaf7;fill-opacity:1;fill-rule:nonzero;stroke:none"
             id="path467" /></g><g
           id="g469"
           transform="translate(380.25,263.9224)"><path
             d="m 0,0 v 33.82 c 0,74.829 -51.877,139.586 -124.249,156.335 -3.894,-0.902 -7.724,-1.951 -11.495,-3.126 C -69.444,166.394 -23,104.619 -23,33.82 V -198.813 H 0 v 91.491 l -11.5,53.842 z"
             style="fill:#7a93ed;fill-opacity:1;fill-rule:nonzero;stroke:none"
             id="path471" /></g><g
           id="g473"
           transform="translate(131.75,156.6001)"><path
             d="M 0,0 H 66.267 182.233 248.5 V 107.322 L 190.517,91.117 H 57.983 L 0,107.683 Z"
             style="fill:#c3e9fc;fill-opacity:1;fill-rule:nonzero;stroke:none"
             id="path475" /></g><g
           id="g477"
           transform="translate(313.9834,297.7427)"><path
             d="M 0,0 C 0,38.09 -23.623,72.48 -57.971,86.936 -92.333,72.452 -115.967,37.942 -115.967,-0.297 v -49.729 l 14.304,-45.558 -14.304,-45.559 v -91.201 H 0 v 91.201 L -13.978,-95.584 0,-50.026 Z"
             style="fill:#ff5252;fill-opacity:1;fill-rule:nonzero;stroke:none"
             id="path479" /></g><g
           id="g481"
           transform="translate(313.9834,247.7168)"><path
             d="m 0,0 v 50.026 c 0,38.09 -23.623,72.48 -57.971,86.935 -3.984,-1.678 -7.816,-3.638 -11.491,-5.83 C -41.46,114.455 -23,83.691 -23,50.026 V -182.318 H 0 v 91.201 l -13.978,45.558 z"
             style="fill:#e03838;fill-opacity:1;fill-rule:nonzero;stroke:none"
             id="path483" /></g><path
           d="m 198.017,156.6 h 115.967 v 91.117 H 198.017 Z"
           style="fill:#fc7c7c;fill-opacity:1;fill-rule:nonzero;stroke:none"
           id="path485" /><path
           d="m 290.983,156.6 h 23 v 91.117 h -23 z"
           style="fill:#ff5252;fill-opacity:1;fill-rule:nonzero;stroke:none"
           id="path487" /><g
           id="g489"
           transform="translate(357.25,156.6001)"><path
             d="M 0,0 H 23 V 107.322 L 0,100.894 Z"
             style="fill:#95d6fc;fill-opacity:1;fill-rule:nonzero;stroke:none"
             id="path491" /></g><g
           id="g493"
           transform="translate(344.2881,153.7715)"><path
             d="m 0,0 -27.477,-27.477 c -1.562,-1.562 -4.094,-1.562 -5.656,0 L -60.61,0 c -1.562,1.562 -1.562,4.095 0,5.657 l 27.477,27.476 c 1.562,1.562 4.094,1.562 5.656,0 L 0,5.657 C 1.562,4.095 1.562,1.562 0,0"
             style="fill:#ffcb37;fill-opacity:1;fill-rule:nonzero;stroke:none"
             id="path495" /></g><g
           id="g497"
           transform="translate(344.2881,159.4282)"><path
             d="m 0,0 -27.477,27.477 c -1.562,1.562 -4.094,1.562 -5.656,0 L -41.558,19.052 -22.506,0 c 1.562,-1.562 1.562,-4.095 0,-5.657 l -19.052,-19.051 8.425,-8.425 c 1.562,-1.562 4.094,-1.562 5.656,0 L 0,-5.657 C 1.562,-4.095 1.562,-1.562 0,0"
             style="fill:#fcac1f;fill-opacity:1;fill-rule:nonzero;stroke:none"
             id="path499" /></g><g
           id="g501"
           transform="translate(228.3213,153.7715)"><path
             d="m 0,0 -27.476,-27.477 c -1.563,-1.562 -4.095,-1.562 -5.657,0 L -60.609,0 c -1.563,1.562 -1.563,4.095 0,5.657 l 27.476,27.476 c 1.562,1.562 4.094,1.562 5.657,0 L 0,5.657 C 1.562,4.095 1.562,1.562 0,0"
             style="fill:#ffcb37;fill-opacity:1;fill-rule:nonzero;stroke:none"
             id="path503" /></g><g
           id="g505"
           transform="translate(228.3213,159.4282)"><path
             d="m 0,0 -27.476,27.477 c -1.563,1.562 -4.095,1.562 -5.657,0 L -41.558,19.052 -22.506,0 c 1.563,-1.562 1.563,-4.095 0,-5.657 l -19.052,-19.051 8.425,-8.425 c 1.562,-1.562 4.094,-1.562 5.657,0 L 0,-5.657 C 1.562,-4.095 1.562,-1.562 0,0"
             style="fill:#fcac1f;fill-opacity:1;fill-rule:nonzero;stroke:none"
             id="path507" /></g><g
           id="g509"
           transform="translate(313.9834,280.8501)"><path
             d="m 0,0 h -28.992 c -2.287,0 -4.141,1.854 -4.141,4.142 V 24.85 c 0,4.575 -3.709,8.283 -8.284,8.283 H -74.55 c -4.575,0 -8.283,-3.708 -8.283,-8.283 V 4.142 C -82.833,1.854 -84.687,0 -86.975,0 h -28.992 c -4.574,0 -8.283,-3.708 -8.283,-8.284 v -33.133 c 0,-4.575 3.709,-8.283 8.283,-8.283 h 28.992 c 2.288,0 4.142,-1.854 4.142,-4.142 v -78.691 c 0,-4.575 3.708,-8.284 8.283,-8.284 h 33.133 c 4.575,0 8.284,3.709 8.284,8.284 v 78.691 c 0,2.288 1.854,4.142 4.141,4.142 L 0,-49.7 c 4.575,0 8.283,3.708 8.283,8.283 V -8.284 C 8.283,-3.708 4.575,0 0,0"
             style="fill:#ffffff;fill-opacity:1;fill-rule:nonzero;stroke:none"
             id="path511" /></g><g
           id="g513"
           transform="translate(313.9834,280.8501)"><path
             d="m 0,0 h -23 c 4.575,0 8.283,-3.708 8.283,-8.283 v -33.134 c 0,-4.575 -3.708,-8.283 -8.283,-8.283 H 0 c 4.575,0 8.283,3.708 8.283,8.283 V -8.283 C 8.283,-3.708 4.575,0 0,0"
             style="fill:#ebeaec;fill-opacity:1;fill-rule:nonzero;stroke:none"
             id="path515" /></g><g
           id="g517"
           transform="translate(257.8501,305.7002)"><path
             d="m 0,0 v -20.708 c 0,-2.288 1.854,-4.142 4.142,-4.142 h 23 c -2.288,0 -4.142,1.854 -4.142,4.142 V 0 c 0,4.575 -3.708,8.283 -8.283,8.283 h -23 C -3.708,8.283 0,4.575 0,0"
             style="fill:#ebeaec;fill-opacity:1;fill-rule:nonzero;stroke:none"
             id="path519" /></g><g
           id="g521"
           transform="translate(257.8501,227.0083)"><path
             d="m 0,0 v -78.691 c 0,-4.576 -3.708,-8.284 -8.283,-8.284 h 23 c 4.575,0 8.283,3.708 8.283,8.284 V 0 c 0,2.288 1.854,4.142 4.142,4.142 h -23 C 1.854,4.142 0,2.288 0,0"
             style="fill:#ebeaec;fill-opacity:1;fill-rule:nonzero;stroke:none"
             id="path523" /></g><g
           id="g525"
           transform="translate(463.0835,40.6333)"><path
             d="m 0,0 -11.988,23.976 c -2.806,5.612 -8.543,9.157 -14.818,9.157 h -360.555 c -6.275,0 -12.012,-3.545 -14.818,-9.157 L -414.167,0 V -16.566 H 0 Z"
             style="fill:#dad9dd;fill-opacity:1;fill-rule:nonzero;stroke:none"
             id="path527" /></g><g
           id="g529"
           transform="translate(451.0957,64.6089)"><path
             d="m 0,0 c -2.806,5.612 -8.543,9.158 -14.818,9.158 h -23.083 c 6.275,0 12.011,-3.546 14.818,-9.158 l 11.987,-23.976 v -16.566 h 23.084 v 16.566 z"
             style="fill:#bfbfbf;fill-opacity:1;fill-rule:nonzero;stroke:none"
             id="path531" /></g><g
           id="g533"
           transform="translate(479.9331,40.6333)"><path
             d="m 0,0 h -447.867 c -4.418,0 -8,-3.582 -8,-8 v -17.133 c 0,-4.419 3.582,-8 8,-8 H 0 c 4.418,0 8,3.581 8,8 V -8 C 8,-3.582 4.418,0 0,0"
             style="fill:#ebeaec;fill-opacity:1;fill-rule:nonzero;stroke:none"
             id="path535" /></g><g
           id="g537"
           transform="translate(479.9331,40.6333)"><path
             d="m 0,0 h -23 c 4.418,0 8,-3.582 8,-8 v -17.133 c 0,-4.419 -3.582,-8 -8,-8 H 0 c 4.418,0 8,3.581 8,8 V -8 C 8,-3.582 4.418,0 0,0"
             style="fill:#dad9dd;fill-opacity:1;fill-rule:nonzero;stroke:none"
             id="path539" /></g><g
           id="g541"
           transform="translate(98.6147,7.5)"><path
             d="m 0,0 h 381.318 c 4.419,0 8,3.582 8,8 v 17.133 c 0,4.419 -3.581,8 -8,8 H -66.548 c -4.418,0 -8,-3.581 -8,-8 V 8 c 0,-4.418 3.582,-8 8,-8 L -35,0"
             style="fill:none;stroke:#000000;stroke-width:15;stroke-linecap:round;stroke-linejoin:round;stroke-miterlimit:10;stroke-dasharray:none;stroke-opacity:1"
             id="path543" /></g><g
           id="g545"
           transform="translate(48.9165,40.6333)"><path
             d="m 0,0 11.988,23.976 c 2.806,5.612 8.543,9.157 14.818,9.157 h 360.555 c 6.275,0 12.012,-3.545 14.818,-9.157 L 414.167,0"
             style="fill:none;stroke:#000000;stroke-width:15;stroke-linecap:round;stroke-linejoin:round;stroke-miterlimit:10;stroke-dasharray:none;stroke-opacity:1"
             id="path547" /></g><g
           id="g549"
           transform="translate(185.27,478.6538)"><path
             d="m 0,0 c 20.437,12.113 43.201,20.9 67.63,25.554 2.048,0.39 4.152,0.39 6.2,0 v 0 C 172.96,6.671 244.68,-79.999 244.68,-180.911 v -223.976"
             style="fill:none;stroke:#000000;stroke-width:15;stroke-linecap:round;stroke-linejoin:round;stroke-miterlimit:10;stroke-dasharray:none;stroke-opacity:1"
             id="path551" /></g><g
           id="g553"
           transform="translate(82.0498,73.7666)"><path
             d="m 0,0 v 223.678 c 0,63.75 28.623,121.935 74.696,160.905"
             style="fill:none;stroke:#000000;stroke-width:15;stroke-linecap:round;stroke-linejoin:round;stroke-miterlimit:10;stroke-dasharray:none;stroke-opacity:1"
             id="path555" /></g><g
           id="g557"
           transform="translate(256.0009,454.0776)"><path
             d="m 0,0 c 72.372,-16.75 124.249,-81.506 124.249,-156.335 v -223.976 h -248.5 v 223.678 C -124.251,-81.641 -72.369,-16.762 0,0"
             style="fill:none;stroke:#000000;stroke-width:15;stroke-linecap:round;stroke-linejoin:round;stroke-miterlimit:10;stroke-dasharray:none;stroke-opacity:1"
             id="path559" /></g><g
           id="g561"
           transform="translate(82.0498,181.4502)"><path
             d="M 0,0 H 49.7"
             style="fill:none;stroke:#000000;stroke-width:15;stroke-linecap:round;stroke-linejoin:round;stroke-miterlimit:10;stroke-dasharray:none;stroke-opacity:1"
             id="path563" /></g><g
           id="g565"
           transform="translate(82.0498,289.1333)"><path
             d="M 0,0 H 49.7"
             style="fill:none;stroke:#000000;stroke-width:15;stroke-linecap:round;stroke-linejoin:round;stroke-miterlimit:10;stroke-dasharray:none;stroke-opacity:1"
             id="path567" /></g><g
           id="g569"
           transform="translate(380.25,289.1333)"><path
             d="M 0,0 H 49.7"
             style="fill:none;stroke:#000000;stroke-width:15;stroke-linecap:round;stroke-linejoin:round;stroke-miterlimit:10;stroke-dasharray:none;stroke-opacity:1"
             id="path571" /></g><g
           id="g573"
           transform="translate(380.25,181.4502)"><path
             d="M 0,0 H 49.7"
             style="fill:none;stroke:#000000;stroke-width:15;stroke-linecap:round;stroke-linejoin:round;stroke-miterlimit:10;stroke-dasharray:none;stroke-opacity:1"
             id="path575" /></g><g
           id="g577"
           transform="translate(338.8335,405.1001)"><path
             d="M 0,0 35.294,35.294"
             style="fill:none;stroke:#000000;stroke-width:15;stroke-linecap:round;stroke-linejoin:round;stroke-miterlimit:10;stroke-dasharray:none;stroke-opacity:1"
             id="path579" /></g><g
           id="g581"
           transform="translate(137.9355,440.3311)"><path
             d="M 0,0 35.231,-35.231"
             style="fill:none;stroke:#000000;stroke-width:15;stroke-linecap:round;stroke-linejoin:round;stroke-miterlimit:10;stroke-dasharray:none;stroke-opacity:1"
             id="path583" /></g><g
           id="g585"
           transform="translate(256,504.4634)"><path
             d="M 0,0 V -50.386"
             style="fill:none;stroke:#000000;stroke-width:15;stroke-linecap:round;stroke-linejoin:round;stroke-miterlimit:10;stroke-dasharray:none;stroke-opacity:1"
             id="path587" /></g><g
           id="g589"
           transform="translate(313.9834,280.8501)"><path
             d="m 0,0 h -28.992 c -2.287,0 -4.141,1.854 -4.141,4.142 V 24.85 c 0,4.575 -3.709,8.283 -8.284,8.283 H -74.55 c -4.575,0 -8.283,-3.708 -8.283,-8.283 V 4.142 C -82.833,1.854 -84.687,0 -86.975,0 h -28.992 c -4.574,0 -8.283,-3.708 -8.283,-8.284 v -33.133 c 0,-4.575 3.709,-8.283 8.283,-8.283 h 28.992 c 2.288,0 4.142,-1.854 4.142,-4.142 v -78.691 c 0,-4.575 3.708,-8.284 8.283,-8.284 h 33.133 c 4.575,0 8.284,3.709 8.284,8.284 v 78.691 c 0,2.288 1.854,4.142 4.141,4.142 L 0,-49.7 c 4.575,0 8.283,3.708 8.283,8.283 V -8.284 C 8.283,-3.708 4.575,0 0,0 Z"
             style="fill:none;stroke:#000000;stroke-width:15;stroke-linecap:round;stroke-linejoin:round;stroke-miterlimit:10;stroke-dasharray:none;stroke-opacity:1"
             id="path591" /></g><g
           id="g593"
           transform="translate(231.1499,156.6001)"><path
             d="M 0,0 -33.133,-33.133 -66.267,0 -33.133,33.133 Z"
             style="fill:none;stroke:#000000;stroke-width:15;stroke-linecap:round;stroke-linejoin:round;stroke-miterlimit:10;stroke-dasharray:none;stroke-opacity:1"
             id="path595" /></g><g
           id="g597"
           transform="translate(347.1167,156.6001)"><path
             d="M 0,0 -33.133,-33.133 -66.267,0 -33.133,33.133 Z"
             style="fill:none;stroke:#000000;stroke-width:15;stroke-linecap:round;stroke-linejoin:round;stroke-miterlimit:10;stroke-dasharray:none;stroke-opacity:1"
             id="path599" /></g><g
           id="g601"
           transform="translate(131.75,264.2832)"><path
             d="M 0,0 57.983,-16.566"
             style="fill:none;stroke:#000000;stroke-width:15;stroke-linecap:round;stroke-linejoin:round;stroke-miterlimit:10;stroke-dasharray:none;stroke-opacity:1"
             id="path603" /></g><g
           id="g605"
           transform="translate(313.9834,280.8501)"><path
             d="m 0,0 v 16.893 c 0,38.09 -23.623,72.48 -57.971,86.935 -34.362,-14.483 -57.996,-48.993 -57.996,-87.233 V 0"
             style="fill:none;stroke:#000000;stroke-width:15;stroke-linecap:round;stroke-linejoin:round;stroke-miterlimit:10;stroke-dasharray:none;stroke-opacity:1"
             id="path607" /></g><g
           id="g609"
           transform="translate(313.9834,189.7334)"><path
             d="M 0,0 V 41.417"
             style="fill:none;stroke:#000000;stroke-width:15;stroke-linecap:round;stroke-linejoin:round;stroke-miterlimit:10;stroke-dasharray:none;stroke-opacity:1"
             id="path611" /></g><g
           id="g613"
           transform="translate(313.9834,73.7656)"><path
             d="M 0,0 V 49.701"
             style="fill:none;stroke:#000000;stroke-width:15;stroke-linecap:round;stroke-linejoin:round;stroke-miterlimit:10;stroke-dasharray:none;stroke-opacity:1"
             id="path615" /></g><g
           id="g617"
           transform="translate(198.0166,123.4668)"><path
             d="M 0,0 V -49.701"
             style="fill:none;stroke:#000000;stroke-width:15;stroke-linecap:round;stroke-linejoin:round;stroke-miterlimit:10;stroke-dasharray:none;stroke-opacity:1"
             id="path619" /></g><g
           id="g621"
           transform="translate(198.0166,231.1499)"><path
             d="M 0,0 V -41.417"
             style="fill:none;stroke:#000000;stroke-width:15;stroke-linecap:round;stroke-linejoin:round;stroke-miterlimit:10;stroke-dasharray:none;stroke-opacity:1"
             id="path623" /></g><g
           id="g625"
           transform="translate(322.2666,247.7168)"><path
             d="M 0,0 57.983,16.205"
             style="fill:none;stroke:#000000;stroke-width:15;stroke-linecap:round;stroke-linejoin:round;stroke-miterlimit:10;stroke-dasharray:none;stroke-opacity:1"
             id="path627" /></g><g
           id="g629"
           transform="translate(164.8833,156.6001)"><path
             d="M 0,0 H -33.133"
             style="fill:none;stroke:#000000;stroke-width:15;stroke-linecap:round;stroke-linejoin:round;stroke-miterlimit:10;stroke-dasharray:none;stroke-opacity:1"
             id="path631" /></g><g
           id="g633"
           transform="translate(347.1167,156.6001)"><path
             d="M 0,0 H 33.133"
             style="fill:none;stroke:#000000;stroke-width:15;stroke-linecap:round;stroke-linejoin:round;stroke-miterlimit:10;stroke-dasharray:none;stroke-opacity:1"
             id="path635" /></g></g></g></g></svg>
